<svg width="40" height="40" viewBox="0 0 40 40" fill="none" xmlns="http://www.w3.org/2000/svg">
    <path d="M15 7.5H12.5C11.837 7.5 11.2011 7.76339 10.7322 8.23223C10.2634 8.70108 10 9.33696 10 10V30C10 30.6631 10.2634 31.299 10.7322 31.7678C11.2011 32.2366 11.837 32.5 12.5 32.5H15C15.6631 32.5 16.2989 32.2366 16.7678 31.7678C17.2366 31.299 17.5 30.6631 17.5 30V10C17.5 9.33696 17.2366 8.70108 16.7678 8.23223C16.2989 7.76339 15.6631 7.5 15 7.5Z" fill="currentColor"/>
    <path d="M27.5 7.5H25C24.337 7.5 23.7011 7.76339 23.2323 8.23223C22.7634 8.70108 22.5 9.33696 22.5 10V30C22.5 30.6631 22.7634 31.299 23.2323 31.7678C23.7011 32.2366 24.337 32.5 25 32.5H27.5C28.1631 32.5 28.799 32.2366 29.2678 31.7678C29.7366 31.299 30 30.6631 30 30V10C30 9.33696 29.7366 8.70108 29.2678 8.23223C28.799 7.76339 28.1631 7.5 27.5 7.5Z" fill="currentColor"/>
    </svg>
    